<svg xmlns="http://www.w3.org/2000/svg" width="24" height="24" viewBox="0 0 24 24">
    <path fill="#FFF" fill-rule="nonzero" d="M21.936 0H2.066A1.72 1.72 0 0 0 .342 1.72v20.56c0 .95.771 1.72 1.722 1.72h19.87c.952 0 1.722-.77 1.722-1.72V1.72c0-.95-.77-1.72-1.721-1.72zM7.41 20.09H3.888V9.254h3.523V20.09zM5.651 7.774h-.025c-1.18 0-1.947-.832-1.947-1.873 0-1.062.789-1.871 1.993-1.871 1.205 0 1.946.808 1.97 1.87 0 1.042-.765 1.874-1.992 1.874zM20.108 20.09h-3.521v-5.798c0-1.457-.51-2.45-1.784-2.45-.974 0-1.553.67-1.807 1.317-.094.232-.117.555-.117.878v6.052H9.36s.045-9.819 0-10.835h3.52v1.536c.468-.738 1.303-1.791 3.173-1.791 2.318 0 4.056 1.548 4.056 4.877v6.214zm-7.238-9.23c.011-.018.027-.04.042-.061v.061h-.042z"/>
</svg>
