<svg xmlns="http://www.w3.org/2000/svg" width="28" height="28" viewBox="0 0 28 28">
    <path fill="#349CD1" fill-rule="nonzero" d="M14 0C6.268 0 0 6.268 0 14s6.268 14 14 14 14-6.268 14-14S21.732 0 14 0zM8.581 3.28c-.25.347-.49.72-.718 1.12-.348.61-.658 1.267-.93 1.962a27.56 27.56 0 0 1-1.727-.538A12.083 12.083 0 0 1 8.58 3.28zM3.755 7.731c.82.308 1.65.578 2.483.81a21.977 21.977 0 0 0-.628 4.315H2.04a11.932 11.932 0 0 1 1.715-5.125zm0 12.536a11.93 11.93 0 0 1-1.714-5.125h3.57c.071 1.501.284 2.955.627 4.314-.834.233-1.662.503-2.483.811zm1.45 1.908a27.477 27.477 0 0 1 1.728-.538c.272.695.582 1.352.93 1.963.227.4.467.772.718 1.12a12.084 12.084 0 0 1-3.375-2.545zm7.652 3.244c-1.465-.549-2.761-2.124-3.666-4.3a26.522 26.522 0 0 1 3.666-.416v4.716zm0-7.008a28.786 28.786 0 0 0-4.388.516 19.75 19.75 0 0 1-.569-3.785h4.957v3.27zm0-5.555H7.9c.073-1.335.27-2.611.569-3.785 1.454.285 2.92.457 4.388.516v3.269zm0-5.561A26.523 26.523 0 0 1 9.19 6.88c.905-2.176 2.201-3.751 3.666-4.3v4.716zm11.388.436a11.93 11.93 0 0 1 1.714 5.125h-3.57a21.98 21.98 0 0 0-.627-4.314 29.873 29.873 0 0 0 2.483-.81zm-1.45-1.907a27.5 27.5 0 0 1-1.728.537 15.052 15.052 0 0 0-.93-1.963c-.227-.4-.467-.772-.718-1.12a12.086 12.086 0 0 1 3.376 2.546zM15.143 2.58c1.465.549 2.762 2.124 3.666 4.3-1.216.224-2.44.363-3.666.416V2.58zm0 7.008a28.783 28.783 0 0 0 4.388-.516c.299 1.174.496 2.45.569 3.785h-4.957V9.588zm0 5.555H20.1a19.748 19.748 0 0 1-.569 3.785 28.783 28.783 0 0 0-4.388-.516v-3.269zm0 10.277v-4.716a26.52 26.52 0 0 1 3.666.416c-.904 2.176-2.201 3.751-3.666 4.3zm4.276-.7c.25-.347.49-.72.718-1.12.348-.61.658-1.267.93-1.962.579.16 1.155.339 1.728.537a12.084 12.084 0 0 1-3.376 2.546zm4.826-4.452a29.881 29.881 0 0 0-2.483-.811c.343-1.36.556-2.813.628-4.314h3.57a11.931 11.931 0 0 1-1.715 5.125z"/>
</svg>
